/* XPM */
static const char *notepad_plus_plus_xpm[] = {
/* width height num_colors chars_per_pixel */
"48 48 8 1",
/* colors */
". c #1E1E1E",
"# c #2D2D30",
"a c #3E3E42",
"b c #007ACC",
"c c #569CD6",
"d c #4EC9B0",
"e c #D4D4D4",
"f c #FFFFFF",
/* pixels */
"................................................",
"................................................",
"..############aaaaaaaaaaaaaaaa##################",
"..############aaaaaaaaaaaaaaaa##################",
"..##bbbbbbbb##aaaaaaaaaaaaaaaa##cccccccccccccc##",
"..##bbbbbbbb##aaaaaaaaaaaaaaaa##cccccccccccccc##",
"..##bbbbbbbb##aaddddddddddddaa##cccccccccccccc##",
"..##bbbbbbbb##aaddddddddddddaa##cccccccccccccc##",
"..##bbbbbbbb##aaddddddddddddaa##cccccccccccccc##",
"..##bbbbbbbb##aaddddddddddddaa##cccccccccccccc##",
"..##bbbbbbbb##aaddddddddddddaa##cccccccccccccc##",
"..##bbbbbbbb##aaddddddddddddaa##cccccccccccccc##",
"..##bbbbbbbb##aaaaaaaaaaaaaaaa##cccccccccccccc##",
"..##bbbbbbbb##aaaaaaaaaaaaaaaa##cccccccccccccc##",
"..############aaaaaaaaaaaaaaaa##################",
"..############aaaaaaaaaaaaaaaa##################",
"..eeeeeeeeeeeeeeeeeeeeeeeeeeeeeeeeeeeeeeeeeeeeee",
"..eeeeeeeeeeeeeeeeeeeeeeeeeeeeeeeeeeeeeeeeeeeeee",
"..eeffffffffffffffffffffffffffffffffffffffffffee",
"..eeffffffffffffffffffffffffffffffffffffffffffee",
"..eeffeeeeeeeeeeeeeeeeeeeeeeeeeeeeeeeeeeeeffffee",
"..eeffeeeeeeeeeeeeeeeeeeeeeeeeeeeeeeeeeeeeffffee",
"..eeffeeeeeeeeeeeeeeeeeeeeeeeeeeeeeeeeeeeeffffee",
"..eeffeeeeeeeeeeeeeeeeeeeeeeeeeeeeeeeeeeeeffffee",
"..eeffffffffffffffffffffffffffffffffffffffffffee",
"..eeffffffffffffffffffffffffffffffffffffffffffee",
"..eeffeeeeeeeeeeeeeeeeeeeeeeeeeeeeeeeeeeeeffffee",
"..eeffeeeeeeeeeeeeeeeeeeeeeeeeeeeeeeeeeeeeffffee",
"..eeffeeeeeeeeeeeeeeeeeeeeeeeeeeeeeeeeeeeeffffee",
"..eeffeeeeeeeeeeeeeeeeeeeeeeeeeeeeeeeeeeeeffffee",
"..eeffffffffffffffffffffffffffffffffffffffffffee",
"..eeffffffffffffffffffffffffffffffffffffffffffee",
"..eeffeeeeeeeeeeeeeeeeeeeeeeeeeeeeeeeeeeeeffffee",
"..eeffeeeeeeeeeeeeeeeeeeeeeeeeeeeeeeeeeeeeffffee",
"..eeffeeeeeeeeeeeeeeeeeeeeeeeeeeeeeeeeeeeeffffee",
"..eeffeeeeeeeeeeeeeeeeeeeeeeeeeeeeeeeeeeeeffffee",
"..eeffffffffffffffffffffffffffffffffffffffffffee",
"..eeffffffffffffffffffffffffffffffffffffffffffee",
"..eeffeeeeeeeeeeeeeeeeeeeeeeeeeeeeeeeeeeeeffffee",
"..eeffeeeeeeeeeeeeeeeeeeeeeeeeeeeeeeeeeeeeffffee",
"..eeffeeeeeeeeeeeeeeeeeeeeeeeeeeeeeeeeeeeeffffee",
"..eeffeeeeeeeeeeeeeeeeeeeeeeeeeeeeeeeeeeeeffffee",
"..eeffffffffffffffffffffffffffffffffffffffffffee",
"..eeffffffffffffffffffffffffffffffffffffffffffee",
"..eeeeeeeeeeeeeeeeeeeeeeeeeeeeeeeeeeeeeeeeeeeeee",
"..eeeeeeeeeeeeeeeeeeeeeeeeeeeeeeeeeeeeeeeeeeeeee",
"................................................",
"................................................"
};
